<svg width="548px" height="198px"
 viewBox="0.00 0.00 548.00 197.60" xmlns="http://www.w3.org/2000/svg" xmlns:xlink="http://www.w3.org/1999/xlink">
<g id="graph0" class="graph" transform="scale(1.0 1.0) rotate(0.0) translate(4.0 193.6)">
<polygon fill="white" stroke="transparent" points="-4,4 -4,-193.6 544,-193.6 544,4 -4,4"/>
<!-- 2f86c7af&#45;1106&#45;4a1e&#45;953b&#45;9e63005c4bfd -->
<g id="node1" class="node">
<title>2f86c7af&#45;1106&#45;4a1e&#45;953b&#45;9e63005c4bfd</title>
<ellipse fill="none" stroke="black" cx="432" cy="-59.3" rx="18" ry="18"/>
<text text-anchor="middle" x="432" y="-55.1" font-family="Times,serif" font-size="14.00">*</text>
</g>
<!-- &#45;8.0 -->
<g id="node2" class="node">
<title>&#45;8.0</title>
<polygon fill="none" stroke="black" points="486,-34.5 486,-84.1 540,-84.1 540,-34.5 486,-34.5"/>
<text text-anchor="middle" x="513" y="-67.5" font-family="Times,serif" font-size="14.00">Out</text>
<polyline fill="none" stroke="black" points="486,-59.3 540,-59.3 "/>
<text text-anchor="middle" x="513" y="-42.7" font-family="Times,serif" font-size="14.00">&#45;8.0</text>
</g>
<!-- 2f86c7af&#45;1106&#45;4a1e&#45;953b&#45;9e63005c4bfd&#45;&gt;&#45;8.0 -->
<g id="edge1" class="edge">
<title>2f86c7af&#45;1106&#45;4a1e&#45;953b&#45;9e63005c4bfd&#45;&gt;&#45;8.0</title>
<path fill="none" stroke="black" d="M450.14,-59.3C457.64,-59.3 466.75,-59.3 475.64,-59.3"/>
<polygon fill="black" stroke="black" points="475.87,-62.8 485.87,-59.3 475.87,-55.8 475.87,-62.8"/>
</g>
<!-- 4.0 -->
<g id="node3" class="node">
<title>4.0</title>
<polygon fill="none" stroke="black" points="324,-69.5 324,-119.1 378,-119.1 378,-69.5 324,-69.5"/>
<text text-anchor="middle" x="351" y="-102.5" font-family="Times,serif" font-size="14.00">d</text>
<polyline fill="none" stroke="black" points="324,-94.3 378,-94.3 "/>
<text text-anchor="middle" x="351" y="-77.7" font-family="Times,serif" font-size="14.00">4.0</text>
</g>
<!-- 4.0&#45;&gt;2f86c7af&#45;1106&#45;4a1e&#45;953b&#45;9e63005c4bfd -->
<g id="edge2" class="edge">
<title>4.0&#45;&gt;2f86c7af&#45;1106&#45;4a1e&#45;953b&#45;9e63005c4bfd</title>
<path fill="none" stroke="black" d="M378.31,-82.65C387.18,-78.72 397.05,-74.34 405.83,-70.45"/>
<polygon fill="black" stroke="black" points="407.44,-73.57 415.17,-66.31 404.61,-67.17 407.44,-73.57"/>
</g>
<!-- 95925451&#45;c678&#45;48ff&#45;9cbd&#45;2529c3b01d8f -->
<g id="node4" class="node">
<title>95925451&#45;c678&#45;48ff&#45;9cbd&#45;2529c3b01d8f</title>
<ellipse fill="none" stroke="black" cx="270" cy="-94.3" rx="18" ry="18"/>
<text text-anchor="middle" x="270" y="-90.1" font-family="Times,serif" font-size="14.00">+</text>
</g>
<!-- 95925451&#45;c678&#45;48ff&#45;9cbd&#45;2529c3b01d8f&#45;&gt;4.0 -->
<g id="edge3" class="edge">
<title>95925451&#45;c678&#45;48ff&#45;9cbd&#45;2529c3b01d8f&#45;&gt;4.0</title>
<path fill="none" stroke="black" d="M288.14,-94.3C295.64,-94.3 304.75,-94.3 313.64,-94.3"/>
<polygon fill="black" stroke="black" points="313.87,-97.8 323.87,-94.3 313.87,-90.8 313.87,-97.8"/>
</g>
<!-- &#45;6.0 -->
<g id="node5" class="node">
<title>&#45;6.0</title>
<polygon fill="none" stroke="black" points="162,-104.5 162,-154.1 216,-154.1 216,-104.5 162,-104.5"/>
<text text-anchor="middle" x="189" y="-137.5" font-family="Times,serif" font-size="14.00">e</text>
<polyline fill="none" stroke="black" points="162,-129.3 216,-129.3 "/>
<text text-anchor="middle" x="189" y="-112.7" font-family="Times,serif" font-size="14.00">&#45;6.0</text>
</g>
<!-- &#45;6.0&#45;&gt;95925451&#45;c678&#45;48ff&#45;9cbd&#45;2529c3b01d8f -->
<g id="edge4" class="edge">
<title>&#45;6.0&#45;&gt;95925451&#45;c678&#45;48ff&#45;9cbd&#45;2529c3b01d8f</title>
<path fill="none" stroke="black" d="M216.31,-117.65C225.18,-113.72 235.05,-109.34 243.83,-105.45"/>
<polygon fill="black" stroke="black" points="245.44,-108.57 253.17,-101.31 242.61,-102.17 245.44,-108.57"/>
</g>
<!-- 860e53bb&#45;5ec2&#45;416a&#45;ad27&#45;cb7ab54dc79e -->
<g id="node6" class="node">
<title>860e53bb&#45;5ec2&#45;416a&#45;ad27&#45;cb7ab54dc79e</title>
<ellipse fill="none" stroke="black" cx="108" cy="-129.3" rx="18" ry="18"/>
<text text-anchor="middle" x="108" y="-125.1" font-family="Times,serif" font-size="14.00">*</text>
</g>
<!-- 860e53bb&#45;5ec2&#45;416a&#45;ad27&#45;cb7ab54dc79e&#45;&gt;&#45;6.0 -->
<g id="edge5" class="edge">
<title>860e53bb&#45;5ec2&#45;416a&#45;ad27&#45;cb7ab54dc79e&#45;&gt;&#45;6.0</title>
<path fill="none" stroke="black" d="M126.14,-129.3C133.64,-129.3 142.75,-129.3 151.64,-129.3"/>
<polygon fill="black" stroke="black" points="151.87,-132.8 161.87,-129.3 151.87,-125.8 151.87,-132.8"/>
</g>
<!-- 2.0 -->
<g id="node7" class="node">
<title>2.0</title>
<polygon fill="none" stroke="black" points="0,-139.5 0,-189.1 54,-189.1 54,-139.5 0,-139.5"/>
<text text-anchor="middle" x="27" y="-172.5" font-family="Times,serif" font-size="14.00">a</text>
<polyline fill="none" stroke="black" points="0,-164.3 54,-164.3 "/>
<text text-anchor="middle" x="27" y="-147.7" font-family="Times,serif" font-size="14.00">2.0</text>
</g>
<!-- 2.0&#45;&gt;860e53bb&#45;5ec2&#45;416a&#45;ad27&#45;cb7ab54dc79e -->
<g id="edge6" class="edge">
<title>2.0&#45;&gt;860e53bb&#45;5ec2&#45;416a&#45;ad27&#45;cb7ab54dc79e</title>
<path fill="none" stroke="black" d="M54.31,-152.65C63.18,-148.72 73.05,-144.34 81.83,-140.45"/>
<polygon fill="black" stroke="black" points="83.44,-143.57 91.17,-136.31 80.61,-137.17 83.44,-143.57"/>
</g>
<!-- &#45;3.0 -->
<g id="node8" class="node">
<title>&#45;3.0</title>
<polygon fill="none" stroke="black" points="0,-70.5 0,-120.1 54,-120.1 54,-70.5 0,-70.5"/>
<text text-anchor="middle" x="27" y="-103.5" font-family="Times,serif" font-size="14.00">b</text>
<polyline fill="none" stroke="black" points="0,-95.3 54,-95.3 "/>
<text text-anchor="middle" x="27" y="-78.7" font-family="Times,serif" font-size="14.00">&#45;3.0</text>
</g>
<!-- &#45;3.0&#45;&gt;860e53bb&#45;5ec2&#45;416a&#45;ad27&#45;cb7ab54dc79e -->
<g id="edge7" class="edge">
<title>&#45;3.0&#45;&gt;860e53bb&#45;5ec2&#45;416a&#45;ad27&#45;cb7ab54dc79e</title>
<path fill="none" stroke="black" d="M54.31,-106.62C63.18,-110.44 73.05,-114.69 81.83,-118.47"/>
<polygon fill="black" stroke="black" points="80.6,-121.75 91.17,-122.49 83.37,-115.32 80.6,-121.75"/>
</g>
<!-- 10.0 -->
<g id="node9" class="node">
<title>10.0</title>
<polygon fill="none" stroke="black" points="162,-35.5 162,-85.1 216,-85.1 216,-35.5 162,-35.5"/>
<text text-anchor="middle" x="189" y="-68.5" font-family="Times,serif" font-size="14.00">c</text>
<polyline fill="none" stroke="black" points="162,-60.3 216,-60.3 "/>
<text text-anchor="middle" x="189" y="-43.7" font-family="Times,serif" font-size="14.00">10.0</text>
</g>
<!-- 10.0&#45;&gt;95925451&#45;c678&#45;48ff&#45;9cbd&#45;2529c3b01d8f -->
<g id="edge8" class="edge">
<title>10.0&#45;&gt;95925451&#45;c678&#45;48ff&#45;9cbd&#45;2529c3b01d8f</title>
<path fill="none" stroke="black" d="M216.31,-71.62C225.18,-75.44 235.05,-79.69 243.83,-83.47"/>
<polygon fill="black" stroke="black" points="242.6,-86.75 253.17,-87.49 245.37,-80.32 242.6,-86.75"/>
</g>
<!-- &#45;2.0 -->
<g id="node10" class="node">
<title>&#45;2.0</title>
<polygon fill="none" stroke="black" points="324,-0.5 324,-50.1 378,-50.1 378,-0.5 324,-0.5"/>
<text text-anchor="middle" x="351" y="-33.5" font-family="Times,serif" font-size="14.00">f</text>
<polyline fill="none" stroke="black" points="324,-25.3 378,-25.3 "/>
<text text-anchor="middle" x="351" y="-8.7" font-family="Times,serif" font-size="14.00">&#45;2.0</text>
</g>
<!-- &#45;2.0&#45;&gt;2f86c7af&#45;1106&#45;4a1e&#45;953b&#45;9e63005c4bfd -->
<g id="edge9" class="edge">
<title>&#45;2.0&#45;&gt;2f86c7af&#45;1106&#45;4a1e&#45;953b&#45;9e63005c4bfd</title>
<path fill="none" stroke="black" d="M378.31,-36.62C387.18,-40.44 397.05,-44.69 405.83,-48.47"/>
<polygon fill="black" stroke="black" points="404.6,-51.75 415.17,-52.49 407.37,-45.32 404.6,-51.75"/>
</g>
</g>
</svg>
