<svg width="434px" height="176px"
 viewBox="0.00 0.00 433.72 176.40" xmlns="http://www.w3.org/2000/svg" xmlns:xlink="http://www.w3.org/1999/xlink">
<g id="graph0" class="graph" transform="scale(1.0 1.0) rotate(0.0) translate(4.0 172.4)">
<polygon fill="white" stroke="transparent" points="-4,4 -4,-172.4 429.72,-172.4 429.72,4 -4,4"/>
<!-- 8da9ce97&#45;3542&#45;4913&#45;a62f&#45;8ca76c48a0a9 -->
<g id="node1" class="node">
<title>8da9ce97&#45;3542&#45;4913&#45;a62f&#45;8ca76c48a0a9</title>
<ellipse fill="none" stroke="black" cx="302.85" cy="-83.7" rx="18" ry="18"/>
<text text-anchor="middle" x="302.85" y="-79.5" font-family="Times,serif" font-size="14.00">*</text>
</g>
<!-- 3d9f9859&#45;3ea3&#45;4335&#45;9b76&#45;dcca5c8544ca -->
<g id="node2" class="node">
<title>3d9f9859&#45;3ea3&#45;4335&#45;9b76&#45;dcca5c8544ca</title>
<polygon fill="none" stroke="black" points="356.85,-46.5 356.85,-120.9 425.72,-120.9 425.72,-46.5 356.85,-46.5"/>
<text text-anchor="middle" x="391.29" y="-104.3" font-family="Times,serif" font-size="14.00">f</text>
<polyline fill="none" stroke="black" points="356.85,-96.1 425.72,-96.1 "/>
<text text-anchor="middle" x="391.29" y="-79.5" font-family="Times,serif" font-size="14.00">data: &#45;6.0</text>
<polyline fill="none" stroke="black" points="356.85,-71.3 425.72,-71.3 "/>
<text text-anchor="middle" x="391.29" y="-54.7" font-family="Times,serif" font-size="14.00">grad: 1.0</text>
</g>
<!-- 8da9ce97&#45;3542&#45;4913&#45;a62f&#45;8ca76c48a0a9&#45;&gt;3d9f9859&#45;3ea3&#45;4335&#45;9b76&#45;dcca5c8544ca -->
<g id="edge1" class="edge">
<title>8da9ce97&#45;3542&#45;4913&#45;a62f&#45;8ca76c48a0a9&#45;&gt;3d9f9859&#45;3ea3&#45;4335&#45;9b76&#45;dcca5c8544ca</title>
<path fill="none" stroke="black" d="M320.93,-83.7C328.36,-83.7 337.45,-83.7 346.57,-83.7"/>
<polygon fill="black" stroke="black" points="346.79,-87.2 356.79,-83.7 346.79,-80.2 346.79,-87.2"/>
</g>
<!-- 42d657d2&#45;e065&#45;4598&#45;aa7d&#45;6c72927b0013 -->
<g id="node3" class="node">
<title>42d657d2&#45;e065&#45;4598&#45;aa7d&#45;6c72927b0013</title>
<polygon fill="none" stroke="black" points="179.2,-93.5 179.2,-167.9 248.08,-167.9 248.08,-93.5 179.2,-93.5"/>
<text text-anchor="middle" x="213.64" y="-151.3" font-family="Times,serif" font-size="14.00">d</text>
<polyline fill="none" stroke="black" points="179.2,-143.1 248.08,-143.1 "/>
<text text-anchor="middle" x="213.64" y="-126.5" font-family="Times,serif" font-size="14.00">data: &#45;6.0</text>
<polyline fill="none" stroke="black" points="179.2,-118.3 248.08,-118.3 "/>
<text text-anchor="middle" x="213.64" y="-101.7" font-family="Times,serif" font-size="14.00">grad: 1.0</text>
</g>
<!-- 42d657d2&#45;e065&#45;4598&#45;aa7d&#45;6c72927b0013&#45;&gt;8da9ce97&#45;3542&#45;4913&#45;a62f&#45;8ca76c48a0a9 -->
<g id="edge2" class="edge">
<title>42d657d2&#45;e065&#45;4598&#45;aa7d&#45;6c72927b0013&#45;&gt;8da9ce97&#45;3542&#45;4913&#45;a62f&#45;8ca76c48a0a9</title>
<path fill="none" stroke="black" d="M248.11,-112.66C257.95,-107.36 268.52,-101.66 277.66,-96.74"/>
<polygon fill="black" stroke="black" points="279.43,-99.76 286.57,-91.93 276.11,-93.6 279.43,-99.76"/>
</g>
<!-- 03a3a307&#45;a821&#45;463b&#45;9a72&#45;97614643fd6f -->
<g id="node4" class="node">
<title>03a3a307&#45;a821&#45;463b&#45;9a72&#45;97614643fd6f</title>
<ellipse fill="none" stroke="black" cx="124.43" cy="-130.7" rx="18" ry="18"/>
<text text-anchor="middle" x="124.43" y="-126.5" font-family="Times,serif" font-size="14.00">*</text>
</g>
<!-- 03a3a307&#45;a821&#45;463b&#45;9a72&#45;97614643fd6f&#45;&gt;42d657d2&#45;e065&#45;4598&#45;aa7d&#45;6c72927b0013 -->
<g id="edge3" class="edge">
<title>03a3a307&#45;a821&#45;463b&#45;9a72&#45;97614643fd6f&#45;&gt;42d657d2&#45;e065&#45;4598&#45;aa7d&#45;6c72927b0013</title>
<path fill="none" stroke="black" d="M142.66,-130.7C150.31,-130.7 159.71,-130.7 169.09,-130.7"/>
<polygon fill="black" stroke="black" points="169.2,-134.2 179.2,-130.7 169.2,-127.2 169.2,-134.2"/>
</g>
<!-- 27b227d3&#45;f413&#45;45b8&#45;ab3c&#45;202b5a6a9518 -->
<g id="node5" class="node">
<title>27b227d3&#45;f413&#45;45b8&#45;ab3c&#45;202b5a6a9518</title>
<polygon fill="none" stroke="black" points="0,-93.5 0,-167.9 70.43,-167.9 70.43,-93.5 0,-93.5"/>
<text text-anchor="middle" x="35.21" y="-151.3" font-family="Times,serif" font-size="14.00">a</text>
<polyline fill="none" stroke="black" points="0,-143.1 70.43,-143.1 "/>
<text text-anchor="middle" x="35.21" y="-126.5" font-family="Times,serif" font-size="14.00">data: &#45;2.0</text>
<polyline fill="none" stroke="black" points="0,-118.3 70.43,-118.3 "/>
<text text-anchor="middle" x="35.21" y="-101.7" font-family="Times,serif" font-size="14.00">grad: &#45;3.0</text>
</g>
<!-- 27b227d3&#45;f413&#45;45b8&#45;ab3c&#45;202b5a6a9518&#45;&gt;03a3a307&#45;a821&#45;463b&#45;9a72&#45;97614643fd6f -->
<g id="edge5" class="edge">
<title>27b227d3&#45;f413&#45;45b8&#45;ab3c&#45;202b5a6a9518&#45;&gt;03a3a307&#45;a821&#45;463b&#45;9a72&#45;97614643fd6f</title>
<path fill="none" stroke="black" d="M70.43,-130.7C78.93,-130.7 87.92,-130.7 96.04,-130.7"/>
<polygon fill="black" stroke="black" points="96.09,-134.2 106.09,-130.7 96.09,-127.2 96.09,-134.2"/>
</g>
<!-- c294c258&#45;5225&#45;4516&#45;b824&#45;d9ccbd775221 -->
<g id="node8" class="node">
<title>c294c258&#45;5225&#45;4516&#45;b824&#45;d9ccbd775221</title>
<ellipse fill="none" stroke="black" cx="124.43" cy="-37.7" rx="18" ry="18"/>
<text text-anchor="middle" x="124.43" y="-33.5" font-family="Times,serif" font-size="14.00">+</text>
</g>
<!-- 27b227d3&#45;f413&#45;45b8&#45;ab3c&#45;202b5a6a9518&#45;&gt;c294c258&#45;5225&#45;4516&#45;b824&#45;d9ccbd775221 -->
<g id="edge4" class="edge">
<title>27b227d3&#45;f413&#45;45b8&#45;ab3c&#45;202b5a6a9518&#45;&gt;c294c258&#45;5225&#45;4516&#45;b824&#45;d9ccbd775221</title>
<path fill="none" stroke="black" d="M70.43,-94.21C81.99,-81.88 94.48,-68.57 104.42,-57.96"/>
<polygon fill="black" stroke="black" points="107.19,-60.13 111.48,-50.44 102.08,-55.34 107.19,-60.13"/>
</g>
<!-- bde50698&#45;aa87&#45;4ecc&#45;9462&#45;22058a4bb736 -->
<g id="node6" class="node">
<title>bde50698&#45;aa87&#45;4ecc&#45;9462&#45;22058a4bb736</title>
<polygon fill="none" stroke="black" points="0,-0.5 0,-74.9 70.43,-74.9 70.43,-0.5 0,-0.5"/>
<text text-anchor="middle" x="35.21" y="-58.3" font-family="Times,serif" font-size="14.00">b</text>
<polyline fill="none" stroke="black" points="0,-50.1 70.43,-50.1 "/>
<text text-anchor="middle" x="35.21" y="-33.5" font-family="Times,serif" font-size="14.00">data: 3.0</text>
<polyline fill="none" stroke="black" points="0,-25.3 70.43,-25.3 "/>
<text text-anchor="middle" x="35.21" y="-8.7" font-family="Times,serif" font-size="14.00">grad: &#45;8.0</text>
</g>
<!-- bde50698&#45;aa87&#45;4ecc&#45;9462&#45;22058a4bb736&#45;&gt;03a3a307&#45;a821&#45;463b&#45;9a72&#45;97614643fd6f -->
<g id="edge7" class="edge">
<title>bde50698&#45;aa87&#45;4ecc&#45;9462&#45;22058a4bb736&#45;&gt;03a3a307&#45;a821&#45;463b&#45;9a72&#45;97614643fd6f</title>
<path fill="none" stroke="black" d="M70.43,-74.19C81.99,-86.52 94.48,-99.83 104.42,-110.44"/>
<polygon fill="black" stroke="black" points="102.08,-113.06 111.48,-117.96 107.19,-108.27 102.08,-113.06"/>
</g>
<!-- bde50698&#45;aa87&#45;4ecc&#45;9462&#45;22058a4bb736&#45;&gt;c294c258&#45;5225&#45;4516&#45;b824&#45;d9ccbd775221 -->
<g id="edge6" class="edge">
<title>bde50698&#45;aa87&#45;4ecc&#45;9462&#45;22058a4bb736&#45;&gt;c294c258&#45;5225&#45;4516&#45;b824&#45;d9ccbd775221</title>
<path fill="none" stroke="black" d="M70.43,-37.7C78.93,-37.7 87.92,-37.7 96.04,-37.7"/>
<polygon fill="black" stroke="black" points="96.09,-41.2 106.09,-37.7 96.09,-34.2 96.09,-41.2"/>
</g>
<!-- aa8918e3&#45;3dfd&#45;4126&#45;8414&#45;f455d9532b8c -->
<g id="node7" class="node">
<title>aa8918e3&#45;3dfd&#45;4126&#45;8414&#45;f455d9532b8c</title>
<polygon fill="none" stroke="black" points="178.43,-0.5 178.43,-74.9 248.85,-74.9 248.85,-0.5 178.43,-0.5"/>
<text text-anchor="middle" x="213.64" y="-58.3" font-family="Times,serif" font-size="14.00">e</text>
<polyline fill="none" stroke="black" points="178.43,-50.1 248.85,-50.1 "/>
<text text-anchor="middle" x="213.64" y="-33.5" font-family="Times,serif" font-size="14.00">data: 1.0</text>
<polyline fill="none" stroke="black" points="178.43,-25.3 248.85,-25.3 "/>
<text text-anchor="middle" x="213.64" y="-8.7" font-family="Times,serif" font-size="14.00">grad: &#45;6.0</text>
</g>
<!-- aa8918e3&#45;3dfd&#45;4126&#45;8414&#45;f455d9532b8c&#45;&gt;8da9ce97&#45;3542&#45;4913&#45;a62f&#45;8ca76c48a0a9 -->
<g id="edge8" class="edge">
<title>aa8918e3&#45;3dfd&#45;4126&#45;8414&#45;f455d9532b8c&#45;&gt;8da9ce97&#45;3542&#45;4913&#45;a62f&#45;8ca76c48a0a9</title>
<path fill="none" stroke="black" d="M248.86,-55.75C258.39,-60.78 268.55,-66.14 277.4,-70.8"/>
<polygon fill="black" stroke="black" points="275.91,-73.98 286.39,-75.55 279.18,-67.78 275.91,-73.98"/>
</g>
<!-- c294c258&#45;5225&#45;4516&#45;b824&#45;d9ccbd775221&#45;&gt;aa8918e3&#45;3dfd&#45;4126&#45;8414&#45;f455d9532b8c -->
<g id="edge9" class="edge">
<title>c294c258&#45;5225&#45;4516&#45;b824&#45;d9ccbd775221&#45;&gt;aa8918e3&#45;3dfd&#45;4126&#45;8414&#45;f455d9532b8c</title>
<path fill="none" stroke="black" d="M142.66,-37.7C150.01,-37.7 158.98,-37.7 168,-37.7"/>
<polygon fill="black" stroke="black" points="168.13,-41.2 178.13,-37.7 168.13,-34.2 168.13,-41.2"/>
</g>
</g>
</svg>
