<svg width="613px" height="270px"
 viewBox="0.00 0.00 612.93 270.40" xmlns="http://www.w3.org/2000/svg" xmlns:xlink="http://www.w3.org/1999/xlink">
<g id="graph0" class="graph" transform="scale(1.0 1.0) rotate(0.0) translate(4.0 266.4)">
<polygon fill="white" stroke="transparent" points="-4,4 -4,-266.4 608.93,-266.4 608.93,4 -4,4"/>
<!-- 09e75189&#45;b984&#45;40db&#45;a415&#45;1b7fa7a349fe -->
<g id="node1" class="node">
<title>09e75189&#45;b984&#45;40db&#45;a415&#45;1b7fa7a349fe</title>
<ellipse fill="none" stroke="black" cx="482.06" cy="-83.7" rx="18" ry="18"/>
<text text-anchor="middle" x="482.06" y="-79.5" font-family="Times,serif" font-size="14.00">*</text>
</g>
<!-- &#45;8.0 -->
<g id="node2" class="node">
<title>&#45;8.0</title>
<polygon fill="none" stroke="black" points="536.06,-46.5 536.06,-120.9 604.93,-120.9 604.93,-46.5 536.06,-46.5"/>
<text text-anchor="middle" x="570.5" y="-104.3" font-family="Times,serif" font-size="14.00">Out</text>
<polyline fill="none" stroke="black" points="536.06,-96.1 604.93,-96.1 "/>
<text text-anchor="middle" x="570.5" y="-79.5" font-family="Times,serif" font-size="14.00">data: &#45;8.0</text>
<polyline fill="none" stroke="black" points="536.06,-71.3 604.93,-71.3 "/>
<text text-anchor="middle" x="570.5" y="-54.7" font-family="Times,serif" font-size="14.00">grad: 1.0</text>
</g>
<!-- 09e75189&#45;b984&#45;40db&#45;a415&#45;1b7fa7a349fe&#45;&gt;&#45;8.0 -->
<g id="edge1" class="edge">
<title>09e75189&#45;b984&#45;40db&#45;a415&#45;1b7fa7a349fe&#45;&gt;&#45;8.0</title>
<path fill="none" stroke="black" d="M500.14,-83.7C507.58,-83.7 516.66,-83.7 525.78,-83.7"/>
<polygon fill="black" stroke="black" points="526,-87.2 536,-83.7 526,-80.2 526,-87.2"/>
</g>
<!-- 4.0 -->
<g id="node3" class="node">
<title>4.0</title>
<polygon fill="none" stroke="black" points="357.64,-93.5 357.64,-167.9 428.06,-167.9 428.06,-93.5 357.64,-93.5"/>
<text text-anchor="middle" x="392.85" y="-151.3" font-family="Times,serif" font-size="14.00">d</text>
<polyline fill="none" stroke="black" points="357.64,-143.1 428.06,-143.1 "/>
<text text-anchor="middle" x="392.85" y="-126.5" font-family="Times,serif" font-size="14.00">data: 4.0</text>
<polyline fill="none" stroke="black" points="357.64,-118.3 428.06,-118.3 "/>
<text text-anchor="middle" x="392.85" y="-101.7" font-family="Times,serif" font-size="14.00">grad: &#45;2.0</text>
</g>
<!-- 4.0&#45;&gt;09e75189&#45;b984&#45;40db&#45;a415&#45;1b7fa7a349fe -->
<g id="edge2" class="edge">
<title>4.0&#45;&gt;09e75189&#45;b984&#45;40db&#45;a415&#45;1b7fa7a349fe</title>
<path fill="none" stroke="black" d="M428.07,-112.26C437.6,-107.12 447.76,-101.65 456.61,-96.88"/>
<polygon fill="black" stroke="black" points="458.46,-99.86 465.6,-92.03 455.14,-93.69 458.46,-99.86"/>
</g>
<!-- 00731f72&#45;506d&#45;4e07&#45;a246&#45;3bbb7417b45b -->
<g id="node4" class="node">
<title>00731f72&#45;506d&#45;4e07&#45;a246&#45;3bbb7417b45b</title>
<ellipse fill="none" stroke="black" cx="303.64" cy="-130.7" rx="18" ry="18"/>
<text text-anchor="middle" x="303.64" y="-126.5" font-family="Times,serif" font-size="14.00">+</text>
</g>
<!-- 00731f72&#45;506d&#45;4e07&#45;a246&#45;3bbb7417b45b&#45;&gt;4.0 -->
<g id="edge3" class="edge">
<title>00731f72&#45;506d&#45;4e07&#45;a246&#45;3bbb7417b45b&#45;&gt;4.0</title>
<path fill="none" stroke="black" d="M321.87,-130.7C329.23,-130.7 338.19,-130.7 347.21,-130.7"/>
<polygon fill="black" stroke="black" points="347.34,-134.2 357.34,-130.7 347.34,-127.2 347.34,-134.2"/>
</g>
<!-- &#45;6.0 -->
<g id="node5" class="node">
<title>&#45;6.0</title>
<polygon fill="none" stroke="black" points="178.82,-140.5 178.82,-214.9 249.24,-214.9 249.24,-140.5 178.82,-140.5"/>
<text text-anchor="middle" x="214.03" y="-198.3" font-family="Times,serif" font-size="14.00">e</text>
<polyline fill="none" stroke="black" points="178.82,-190.1 249.24,-190.1 "/>
<text text-anchor="middle" x="214.03" y="-173.5" font-family="Times,serif" font-size="14.00">data: &#45;6.0</text>
<polyline fill="none" stroke="black" points="178.82,-165.3 249.24,-165.3 "/>
<text text-anchor="middle" x="214.03" y="-148.7" font-family="Times,serif" font-size="14.00">grad: &#45;2.0</text>
</g>
<!-- &#45;6.0&#45;&gt;00731f72&#45;506d&#45;4e07&#45;a246&#45;3bbb7417b45b -->
<g id="edge4" class="edge">
<title>&#45;6.0&#45;&gt;00731f72&#45;506d&#45;4e07&#45;a246&#45;3bbb7417b45b</title>
<path fill="none" stroke="black" d="M249.4,-159.26C258.98,-154.12 269.19,-148.65 278.07,-143.88"/>
<polygon fill="black" stroke="black" points="279.95,-146.84 287.11,-139.03 276.64,-140.68 279.95,-146.84"/>
</g>
<!-- 85ed73c1&#45;7f87&#45;4571&#45;aeb9&#45;98348b3d2841 -->
<g id="node6" class="node">
<title>85ed73c1&#45;7f87&#45;4571&#45;aeb9&#45;98348b3d2841</title>
<ellipse fill="none" stroke="black" cx="124.43" cy="-177.7" rx="18" ry="18"/>
<text text-anchor="middle" x="124.43" y="-173.5" font-family="Times,serif" font-size="14.00">*</text>
</g>
<!-- 85ed73c1&#45;7f87&#45;4571&#45;aeb9&#45;98348b3d2841&#45;&gt;&#45;6.0 -->
<g id="edge5" class="edge">
<title>85ed73c1&#45;7f87&#45;4571&#45;aeb9&#45;98348b3d2841&#45;&gt;&#45;6.0</title>
<path fill="none" stroke="black" d="M142.73,-177.7C150.2,-177.7 159.3,-177.7 168.46,-177.7"/>
<polygon fill="black" stroke="black" points="168.72,-181.2 178.72,-177.7 168.72,-174.2 168.72,-181.2"/>
</g>
<!-- 2.0 -->
<g id="node7" class="node">
<title>2.0</title>
<polygon fill="none" stroke="black" points="2.33,-187.5 2.33,-261.9 68.1,-261.9 68.1,-187.5 2.33,-187.5"/>
<text text-anchor="middle" x="35.21" y="-245.3" font-family="Times,serif" font-size="14.00">a</text>
<polyline fill="none" stroke="black" points="2.33,-237.1 68.1,-237.1 "/>
<text text-anchor="middle" x="35.21" y="-220.5" font-family="Times,serif" font-size="14.00">data: 2.0</text>
<polyline fill="none" stroke="black" points="2.33,-212.3 68.1,-212.3 "/>
<text text-anchor="middle" x="35.21" y="-195.7" font-family="Times,serif" font-size="14.00">grad: 6.0</text>
</g>
<!-- 2.0&#45;&gt;85ed73c1&#45;7f87&#45;4571&#45;aeb9&#45;98348b3d2841 -->
<g id="edge6" class="edge">
<title>2.0&#45;&gt;85ed73c1&#45;7f87&#45;4571&#45;aeb9&#45;98348b3d2841</title>
<path fill="none" stroke="black" d="M68.19,-207.47C78.4,-201.96 89.53,-195.97 99.1,-190.81"/>
<polygon fill="black" stroke="black" points="100.92,-193.8 108.07,-185.98 97.6,-187.64 100.92,-193.8"/>
</g>
<!-- &#45;3.0 -->
<g id="node8" class="node">
<title>&#45;3.0</title>
<polygon fill="none" stroke="black" points="0,-94.5 0,-168.9 70.43,-168.9 70.43,-94.5 0,-94.5"/>
<text text-anchor="middle" x="35.21" y="-152.3" font-family="Times,serif" font-size="14.00">b</text>
<polyline fill="none" stroke="black" points="0,-144.1 70.43,-144.1 "/>
<text text-anchor="middle" x="35.21" y="-127.5" font-family="Times,serif" font-size="14.00">data: &#45;3.0</text>
<polyline fill="none" stroke="black" points="0,-119.3 70.43,-119.3 "/>
<text text-anchor="middle" x="35.21" y="-102.7" font-family="Times,serif" font-size="14.00">grad: &#45;4.0</text>
</g>
<!-- &#45;3.0&#45;&gt;85ed73c1&#45;7f87&#45;4571&#45;aeb9&#45;98348b3d2841 -->
<g id="edge7" class="edge">
<title>&#45;3.0&#45;&gt;85ed73c1&#45;7f87&#45;4571&#45;aeb9&#45;98348b3d2841</title>
<path fill="none" stroke="black" d="M70.43,-149.75C79.96,-154.78 90.12,-160.14 98.97,-164.8"/>
<polygon fill="black" stroke="black" points="97.49,-167.98 107.97,-169.55 100.75,-161.78 97.49,-167.98"/>
</g>
<!-- 10.0 -->
<g id="node9" class="node">
<title>10.0</title>
<polygon fill="none" stroke="black" points="178.43,-47.5 178.43,-121.9 249.64,-121.9 249.64,-47.5 178.43,-47.5"/>
<text text-anchor="middle" x="214.03" y="-105.3" font-family="Times,serif" font-size="14.00">c</text>
<polyline fill="none" stroke="black" points="178.43,-97.1 249.64,-97.1 "/>
<text text-anchor="middle" x="214.03" y="-80.5" font-family="Times,serif" font-size="14.00">data: 10.0</text>
<polyline fill="none" stroke="black" points="178.43,-72.3 249.64,-72.3 "/>
<text text-anchor="middle" x="214.03" y="-55.7" font-family="Times,serif" font-size="14.00">grad: &#45;2.0</text>
</g>
<!-- 10.0&#45;&gt;00731f72&#45;506d&#45;4e07&#45;a246&#45;3bbb7417b45b -->
<g id="edge8" class="edge">
<title>10.0&#45;&gt;00731f72&#45;506d&#45;4e07&#45;a246&#45;3bbb7417b45b</title>
<path fill="none" stroke="black" d="M249.66,-102.88C259.21,-107.9 269.37,-113.23 278.22,-117.88"/>
<polygon fill="black" stroke="black" points="276.72,-121.05 287.2,-122.6 279.98,-114.85 276.72,-121.05"/>
</g>
<!-- &#45;2.0 -->
<g id="node10" class="node">
<title>&#45;2.0</title>
<polygon fill="none" stroke="black" points="358.41,-0.5 358.41,-74.9 427.29,-74.9 427.29,-0.5 358.41,-0.5"/>
<text text-anchor="middle" x="392.85" y="-58.3" font-family="Times,serif" font-size="14.00">f</text>
<polyline fill="none" stroke="black" points="358.41,-50.1 427.29,-50.1 "/>
<text text-anchor="middle" x="392.85" y="-33.5" font-family="Times,serif" font-size="14.00">data: &#45;2.0</text>
<polyline fill="none" stroke="black" points="358.41,-25.3 427.29,-25.3 "/>
<text text-anchor="middle" x="392.85" y="-8.7" font-family="Times,serif" font-size="14.00">grad: 4.0</text>
</g>
<!-- &#45;2.0&#45;&gt;09e75189&#45;b984&#45;40db&#45;a415&#45;1b7fa7a349fe -->
<g id="edge9" class="edge">
<title>&#45;2.0&#45;&gt;09e75189&#45;b984&#45;40db&#45;a415&#45;1b7fa7a349fe</title>
<path fill="none" stroke="black" d="M427.32,-55.35C437.16,-60.54 447.73,-66.12 456.87,-70.94"/>
<polygon fill="black" stroke="black" points="455.31,-74.07 465.78,-75.64 458.57,-67.88 455.31,-74.07"/>
</g>
</g>
</svg>
